<svg width="24" height="24" viewBox="0 0 24 24" fill="currentColor" xmlns="http://www.w3.org/2000/svg">
<path d="M20.5001 4.609C19.9526 3.94659 19.265 3.41386 18.4869 3.04917C17.7088 2.68448 16.8594 2.49692 16.0001 2.5C14.5297 2.45548 13.0982 2.97619 12.0001 3.955C10.9019 2.97619 9.47043 2.45548 8.00007 2.5C7.14072 2.49692 6.29138 2.68448 5.51324 3.04917C4.7351 3.41386 4.04753 3.94659 3.50007 4.609C2.54707 5.765 1.55007 7.858 2.21107 11.269C3.26607 16.716 11.1771 21.186 11.5111 21.369C11.66 21.452 11.8276 21.4956 11.9981 21.4956C12.1685 21.4956 12.3362 21.452 12.4851 21.369C12.8211 21.182 20.7321 16.712 21.7851 11.269C22.4501 7.858 21.4531 5.765 20.5001 4.609ZM19.8261 10.889C19.0801 14.74 13.6581 18.322 12.0001 19.34C9.66407 17.93 4.85807 14.39 4.17907 10.889C3.66607 8.243 4.36807 6.706 5.04807 5.882C5.40767 5.44811 5.85885 5.09918 6.36922 4.86024C6.8796 4.62131 7.43653 4.49828 8.00007 4.5C8.60196 4.45486 9.20528 4.56645 9.7512 4.8239C10.2971 5.08135 10.767 5.47587 11.1151 5.969C11.2009 6.12693 11.3275 6.25896 11.4817 6.35131C11.6359 6.44367 11.8121 6.49298 11.9918 6.49411C12.1716 6.49523 12.3483 6.44812 12.5037 6.3577C12.659 6.26728 12.7873 6.13685 12.8751 5.98C13.2224 5.48303 13.6933 5.08517 14.2413 4.82565C14.7893 4.56612 15.3955 4.45388 16.0001 4.5C16.5648 4.49725 17.1231 4.61977 17.6347 4.85875C18.1464 5.09772 18.5987 5.44719 18.9591 5.882C19.6371 6.706 20.3391 8.243 19.8261 10.889Z"/>
</svg>
