<svg width="20" height="20" viewBox="0 0 20 20" fill="currentColor" xmlns="http://www.w3.org/2000/svg">
<path fill-rule="evenodd" clip-rule="evenodd" d="M0.335067 5.875C-0.204933 7.002 -0.0149335 8.321 0.365066 10.958L0.643066 12.895C1.13007 16.283 1.37407 17.976 2.54907 18.988C3.72407 20 5.44707 20 8.89407 20H11.1061C14.5531 20 16.2761 20 17.4511 18.988C18.6261 17.976 18.8701 16.283 19.3571 12.895L19.6361 10.958C20.0161 8.321 20.2061 7.002 19.6651 5.875C19.1241 4.748 17.9741 4.062 15.6731 2.692L14.2881 1.867C12.2001 0.622 11.1541 0 10.0001 0C8.84607 0 7.80107 0.622 5.71207 1.867L4.32707 2.692C2.02707 4.062 0.876067 4.748 0.335067 5.875ZM6.25007 16C6.25007 15.8011 6.32908 15.6103 6.46974 15.4697C6.61039 15.329 6.80115 15.25 7.00007 15.25H13.0001C13.199 15.25 13.3897 15.329 13.5304 15.4697C13.671 15.6103 13.7501 15.8011 13.7501 16C13.7501 16.1989 13.671 16.3897 13.5304 16.5303C13.3897 16.671 13.199 16.75 13.0001 16.75H7.00007C6.80115 16.75 6.61039 16.671 6.46974 16.5303C6.32908 16.3897 6.25007 16.1989 6.25007 16Z"/>
</svg>
