<svg width="32" height="30" viewBox="0 0 32 30" fill="none" xmlns="http://www.w3.org/2000/svg">
<path d="M22.0321 8.93535L7.64219 0.682729C6.86353 0.233094 5.97974 -0.00245045 5.08059 1.92226e-05C4.18143 0.00248889 3.29895 0.242885 2.52277 0.69679C1.74659 1.15069 1.10437 1.80194 0.661341 2.58437C0.218308 3.36681 -0.00975414 4.25256 0.000319843 5.15166V21.7165C0.000319843 23.0676 0.537068 24.3635 1.49249 25.3189C2.44791 26.2743 3.74373 26.8111 5.0949 26.8111C5.98934 26.8095 6.8677 26.5733 7.64219 26.1258L22.0321 17.8732C22.8053 17.4257 23.4473 16.7827 23.8936 16.0088C24.3398 15.2349 24.5748 14.3572 24.5748 13.4639C24.5748 12.5705 24.3398 11.6928 23.8936 10.9189C23.4473 10.145 22.8053 9.50202 22.0321 9.05452V8.93535ZM20.5425 15.177L6.15254 23.5487C5.83002 23.7315 5.46562 23.8276 5.0949 23.8276C4.72417 23.8276 4.35978 23.7315 4.03725 23.5487C3.71563 23.3631 3.44857 23.096 3.26291 22.7743C3.07725 22.4527 2.97954 22.0879 2.97961 21.7165V5.09207C2.97954 4.7207 3.07725 4.35585 3.26291 4.03422C3.44857 3.71258 3.71563 3.4455 4.03725 3.25981C4.36087 3.07922 4.72433 2.98195 5.0949 2.97678C5.46512 2.98438 5.82801 3.08149 6.15254 3.25981L20.5425 11.572C20.8642 11.7576 21.1314 12.0247 21.3172 12.3463C21.503 12.668 21.6008 13.0328 21.6008 13.4043C21.6008 13.7757 21.503 14.1406 21.3172 14.4622C21.1314 14.7839 20.8642 15.0509 20.5425 15.2365V15.177Z" fill="#CBA6F7"/>
<path fill-rule="evenodd" clip-rule="evenodd" d="M17.6034 6.39136L20.6198 8.12965L25.0671 5.54234C25.3896 5.35955 25.754 5.26347 26.1247 5.26347C26.4955 5.26347 26.8598 5.35955 27.1824 5.54234C27.504 5.72803 27.7711 5.99511 27.9567 6.31675C28.1424 6.63838 28.2401 7.00323 28.24 7.3746L28.24 23.999C28.2401 24.3704 28.1424 24.7352 27.9567 25.0569C27.7711 25.3785 27.504 25.6456 27.1824 25.8313C26.8588 26.0119 26.4953 26.1091 26.1247 26.1143C25.7545 26.1067 25.3916 26.0096 25.0671 25.8313L16.6453 20.9665L13.6221 22.699L23.5774 28.4083C24.3561 28.858 25.2399 29.0935 26.139 29.0911C27.0382 29.0886 27.9207 28.8482 28.6969 28.3943C29.473 27.9404 30.1153 27.2891 30.5583 26.5067C31.0013 25.7243 31.2294 24.8385 31.2193 23.9394L31.2193 7.3746C31.2193 6.02343 30.6826 4.72761 29.7271 3.77219C28.7717 2.81677 27.4759 2.28002 26.1247 2.28002C25.2303 2.28154 24.3519 2.51782 23.5774 2.96525L17.6034 6.39136Z" fill="#89B4FA"/>
</svg>
